<?xml version="1.0" standalone="no"?>
<!DOCTYPE svg PUBLIC "-//W3C//DTD SVG 20010904//EN"
 "http://www.w3.org/TR/2001/REC-SVG-20010904/DTD/svg10.dtd">
<svg version="1.0" xmlns="http://www.w3.org/2000/svg"
 width="1248.000000pt" height="1248.000000pt" viewBox="0 0 1248.000000 1248.000000"
 preserveAspectRatio="xMidYMid meet">
<metadata>
Created by potrace 1.14, written by Peter Selinger 2001-2017
</metadata>
<g transform="translate(0.000000,1248.000000) scale(0.100000,-0.100000)"
fill="#000000" stroke="none">
<path d="M9877 12304 c-1 -1 -40 -5 -87 -8 -109 -9 -132 -13 -205 -31 -33 -9
-65 -17 -72 -18 -32 -8 -130 -66 -159 -94 -68 -67 -63 334 -59 -4543 2 -2428
6 -4512 9 -4630 3 -118 8 -304 10 -412 2 -108 7 -202 11 -209 5 -7 4 -10 -1
-6 -5 3 -7 -14 -5 -39 2 -29 -1 -44 -9 -44 -6 0 -9 4 -5 9 3 5 1 12 -4 15 -5
4 -29 45 -52 94 -24 48 -46 89 -49 92 -3 3 -16 28 -29 55 -14 28 -27 52 -30
55 -3 3 -20 32 -37 65 -68 133 -99 190 -109 197 -5 4 -6 8 -1 8 5 0 4 6 -1 13
-6 6 -25 39 -43 72 -72 133 -82 150 -92 163 -6 6 -7 12 -4 12 4 0 2 6 -5 13
-10 11 -125 228 -211 397 -18 36 -56 108 -84 160 -28 52 -79 149 -114 215 -34
66 -75 143 -90 170 -34 62 -118 221 -157 295 -15 30 -31 57 -34 60 -5 4 -76
135 -133 245 -12 22 -23 42 -26 45 -3 3 -10 14 -16 25 -6 11 -30 56 -54 100
-24 44 -51 92 -61 106 -10 14 -16 28 -13 31 2 3 -2 11 -11 18 -8 7 -15 16 -15
21 0 4 -23 47 -50 95 -27 48 -50 91 -50 95 0 5 -3 9 -8 9 -4 0 -13 14 -21 31
-8 18 -41 79 -74 138 -33 58 -73 131 -89 161 -17 30 -37 66 -46 80 -9 14 -28
47 -42 75 -15 27 -37 66 -48 85 -12 19 -25 41 -29 49 -3 8 -40 73 -81 145 -89
157 -124 219 -148 266 -11 19 -22 37 -26 40 -4 3 -12 17 -18 30 -5 14 -21 43
-33 65 -40 70 -76 133 -103 183 -15 26 -30 52 -34 57 -4 6 -21 35 -37 65 -67
124 -98 175 -107 182 -6 4 -7 8 -2 8 5 0 4 6 -2 13 -5 6 -20 30 -32 52 -13 22
-36 63 -52 90 -16 28 -34 61 -41 75 -6 14 -14 27 -17 30 -3 3 -11 16 -18 30
-6 14 -30 57 -52 95 -22 39 -43 78 -46 88 -4 9 -11 17 -16 17 -5 0 -6 5 -3 10
3 6 1 10 -4 10 -6 0 -11 4 -11 9 0 5 -27 56 -60 114 -33 59 -60 111 -60 117 0
5 -4 10 -8 10 -4 0 -20 24 -35 53 -16 28 -42 77 -60 109 -18 31 -52 92 -76
135 -53 93 -74 130 -102 181 -12 20 -33 57 -47 82 -14 25 -63 111 -109 192
-45 81 -83 152 -83 157 0 6 -4 11 -10 11 -5 0 -10 4 -10 9 0 5 -25 53 -56 107
-60 106 -72 127 -154 274 -29 52 -62 107 -72 123 -11 15 -16 27 -12 27 4 0 0
8 -8 18 -8 9 -30 46 -49 82 -19 36 -37 67 -41 68 -5 2 -8 10 -8 18 0 8 -4 14
-10 14 -5 0 -10 9 -10 20 0 11 -3 20 -8 20 -4 0 -13 15 -21 33 -8 17 -19 39
-26 47 -7 8 -28 44 -47 80 -51 96 -62 114 -73 122 -5 4 -7 8 -3 8 4 0 -10 29
-32 65 -22 36 -36 65 -32 65 4 0 2 4 -4 8 -7 4 -24 30 -39 57 -15 28 -39 70
-53 95 -14 25 -34 63 -46 85 -12 22 -23 42 -26 45 -14 14 -39 60 -33 60 5 0 3
4 -2 8 -6 4 -16 18 -23 32 -7 14 -23 43 -35 65 -47 82 -118 207 -141 250 -6
11 -17 28 -25 38 -8 9 -10 17 -5 17 5 0 4 4 -2 8 -5 4 -28 39 -49 77 -126 228
-167 300 -179 307 -6 4 -7 8 -2 8 4 0 0 12 -9 27 -28 42 -85 145 -98 176 -6
15 -15 27 -19 27 -4 0 -8 4 -8 9 0 9 -89 169 -128 231 -9 14 -15 26 -14 28 1
1 -7 12 -18 24 -11 12 -20 26 -20 31 0 12 -160 251 -171 255 -5 2 -9 8 -9 14
0 5 -6 16 -13 23 -6 8 -41 52 -76 97 -58 75 -184 197 -213 207 -7 2 -21 12
-32 22 -57 54 -250 132 -381 155 -16 3 -48 9 -71 13 -23 4 -55 7 -73 7 -17 -1
-31 1 -31 4 0 3 -20 4 -45 3 -28 0 -45 3 -45 10 0 8 -3 8 -8 2 -8 -12 -82 -14
-82 -2 0 4 -8 4 -17 0 -10 -5 -67 -7 -128 -6 -110 3 -140 3 -205 -1 -19 -1
-45 1 -56 5 -12 4 -25 5 -28 1 -10 -9 -286 -8 -286 2 0 5 -6 4 -12 -1 -7 -5
-24 -8 -38 -7 -66 5 -88 4 -130 -1 -25 -3 -56 -9 -70 -12 -25 -7 -54 -12 -77
-15 -7 -1 -13 -4 -13 -8 0 -4 -6 -7 -13 -7 -38 0 -195 -93 -258 -153 -36 -35
-116 -150 -103 -150 4 0 2 -6 -4 -12 -5 -7 -17 -38 -26 -69 -9 -31 -20 -67
-24 -80 -4 -13 -8 -2607 -9 -5764 -2 -4700 0 -5746 10 -5775 26 -69 40 -88 85
-116 25 -16 49 -28 54 -27 4 2 8 -2 8 -7 0 -6 11 -10 23 -10 13 0 27 -3 31 -7
6 -6 30 -10 84 -15 6 -1 12 -4 12 -7 0 -3 10 -6 23 -7 23 -1 93 -9 192 -23 63
-9 502 -7 545 2 31 7 96 18 135 22 53 6 111 18 163 34 18 5 33 9 35 8 6 -3 87
48 87 55 0 4 7 8 15 8 8 0 15 7 15 15 0 8 4 15 8 15 5 0 16 18 25 41 12 30 16
76 16 186 0 80 1 147 3 148 2 2 1 92 -2 200 -3 108 -2 198 1 200 3 2 2 29 -1
60 -3 31 -4 58 -1 60 3 2 4 101 1 220 -3 119 -3 218 0 220 3 2 3 56 0 120 -3
64 -2 119 1 120 3 2 2 29 -1 60 -3 31 -4 58 -1 60 3 2 4 47 1 100 -3 53 -2 98
1 100 3 2 2 29 -1 60 -3 31 -4 58 -1 60 3 1 4 83 1 180 -3 97 -2 179 1 180 3
2 2 29 -1 60 -3 31 -4 58 -1 60 3 2 4 119 1 260 -3 141 -2 258 1 260 3 2 2 29
-1 60 -3 31 -4 58 -1 60 3 2 4 119 1 260 -3 141 -2 258 1 260 3 2 2 29 -1 60
-3 31 -4 58 -1 60 3 2 4 119 1 260 -3 141 -2 258 1 260 3 2 2 29 -1 60 -3 31
-4 58 -1 60 3 2 4 101 1 220 -3 119 -3 218 0 220 3 2 3 92 0 200 -3 108 -2
198 1 200 3 2 2 29 -1 60 -3 31 -4 58 -1 60 3 2 4 101 1 220 -3 119 -3 218 0
220 3 2 3 56 0 120 -3 64 -2 119 1 120 3 2 2 29 -1 60 -3 31 -4 58 -1 60 3 2
4 47 1 100 -3 53 -2 98 1 100 3 2 2 29 -1 60 -3 31 -4 58 -1 60 3 1 4 65 1
140 -3 75 -3 138 0 140 3 2 3 92 0 200 -3 108 -2 198 1 200 3 2 2 29 -1 60 -3
30 -4 57 -2 59 8 9 -3 1449 -11 1463 -4 6 -3 14 2 18 12 7 10 45 -2 45 -5 0
-4 6 2 14 8 10 9 16 1 21 -6 3 -8 11 -5 16 8 13 12 90 5 94 -4 2 -5 19 -3 37
2 18 4 38 4 43 -1 6 -3 107 -5 225 -4 203 -13 567 -20 888 -2 78 -1 142 3 142
11 0 33 -17 32 -24 -1 -3 30 -71 69 -151 38 -80 70 -147 70 -151 0 -3 10 -20
22 -37 13 -18 22 -33 21 -34 -4 -4 74 -163 87 -178 6 -8 13 -20 14 -27 1 -7 7
-22 13 -33 6 -11 67 -130 136 -265 167 -327 171 -334 180 -341 5 -3 9 -12 10
-20 2 -8 7 -21 12 -29 6 -8 15 -24 21 -35 17 -32 66 -119 72 -130 4 -5 7 -12
7 -15 0 -3 7 -16 15 -30 33 -54 40 -67 76 -135 20 -38 40 -72 43 -75 3 -3 14
-21 23 -40 18 -36 69 -127 106 -190 11 -19 29 -51 40 -70 11 -19 33 -60 50
-90 65 -119 172 -306 179 -315 4 -5 15 -23 23 -40 8 -16 18 -32 21 -35 4 -3
14 -21 23 -40 8 -19 20 -42 25 -50 28 -42 121 -212 121 -220 0 -6 4 -10 9 -10
5 0 11 -8 14 -17 5 -16 27 -56 95 -175 48 -83 66 -115 90 -158 13 -25 32 -58
42 -75 23 -39 66 -115 104 -185 16 -30 32 -57 35 -60 6 -5 67 -118 86 -157 5
-13 13 -23 18 -23 4 0 7 -4 7 -9 0 -6 17 -38 37 -73 20 -35 36 -65 36 -68 -1
-3 4 -12 11 -20 7 -8 37 -58 66 -110 29 -52 62 -111 73 -130 11 -19 30 -53 42
-75 23 -43 42 -76 111 -196 24 -42 44 -81 44 -87 0 -7 4 -12 9 -12 5 0 11 -8
14 -17 4 -10 20 -40 37 -68 16 -27 38 -67 47 -87 10 -21 21 -38 25 -38 5 0 8
-5 8 -11 0 -6 9 -23 20 -39 11 -15 17 -29 14 -32 -2 -3 2 -11 11 -18 8 -7 15
-18 15 -25 0 -8 3 -15 8 -17 7 -3 40 -60 79 -138 10 -19 21 -36 26 -38 4 -2 7
-7 7 -12 0 -4 23 -46 50 -93 28 -47 50 -88 50 -92 0 -3 12 -25 28 -48 15 -23
35 -58 45 -77 9 -19 25 -48 35 -65 10 -16 30 -50 44 -75 14 -25 35 -63 48 -85
12 -22 47 -85 78 -140 30 -55 62 -108 70 -117 8 -10 11 -18 7 -18 -4 0 -2 -8
6 -17 8 -10 20 -29 27 -42 8 -13 22 -39 33 -57 42 -75 57 -102 89 -159 18 -33
53 -93 76 -132 24 -40 40 -73 36 -73 -4 0 -2 -4 4 -8 12 -8 85 -138 84 -148
-1 -4 3 -10 8 -13 5 -3 19 -24 31 -46 12 -22 35 -62 51 -90 16 -27 34 -59 39
-70 5 -11 30 -55 55 -98 25 -43 46 -82 46 -87 0 -6 5 -10 10 -10 6 0 10 -5 10
-10 0 -6 39 -79 87 -163 94 -166 101 -178 158 -282 22 -38 43 -71 47 -73 4 -2
8 -12 8 -23 0 -10 4 -19 8 -19 5 0 14 -16 22 -35 8 -19 17 -35 20 -35 3 0 19
-27 35 -60 16 -33 31 -60 34 -60 3 0 15 -20 26 -45 11 -25 23 -45 27 -45 5 0
8 -4 8 -10 0 -5 24 -51 53 -102 30 -51 57 -100 60 -108 4 -8 17 -31 28 -50 21
-34 33 -56 97 -170 54 -98 98 -174 125 -217 15 -24 27 -45 27 -49 0 -3 18 -36
39 -72 21 -37 39 -71 39 -76 0 -5 4 -12 9 -15 5 -3 23 -31 39 -61 16 -30 32
-56 37 -58 4 -2 7 -8 7 -14 0 -5 24 -51 53 -101 29 -51 79 -137 109 -192 31
-55 68 -120 82 -145 15 -25 40 -71 56 -102 16 -31 34 -59 40 -63 6 -3 8 -11 5
-16 -4 -5 -1 -9 4 -9 6 0 11 -4 11 -10 0 -5 18 -39 40 -75 22 -36 40 -67 40
-70 0 -2 32 -54 70 -116 39 -61 70 -114 70 -118 0 -5 9 -16 20 -26 11 -10 20
-24 20 -32 0 -7 5 -13 10 -13 6 0 10 -7 10 -15 0 -7 6 -18 13 -22 7 -4 23 -25
37 -45 14 -21 28 -38 33 -38 4 0 7 -6 7 -13 0 -7 8 -20 18 -28 9 -9 32 -34 50
-57 78 -97 244 -252 271 -252 6 0 11 -4 11 -9 0 -5 32 -26 72 -45 39 -20 77
-41 84 -47 6 -5 20 -11 30 -14 11 -2 38 -10 62 -19 23 -8 42 -13 42 -10 0 2 8
1 18 -5 9 -5 37 -12 62 -15 25 -4 68 -10 95 -14 68 -10 901 -8 945 2 19 4 44
9 55 11 11 2 22 4 25 5 3 1 8 2 13 1 4 0 7 4 7 10 0 5 4 8 9 5 12 -8 130 55
188 101 27 21 69 62 93 91 44 54 112 180 104 193 -2 4 0 9 6 11 5 1 11 17 13
34 2 17 7 36 11 43 4 6 10 30 12 54 3 23 5 2602 6 5732 0 4231 -3 5701 -11
5732 -6 23 -18 49 -26 57 -8 8 -15 19 -15 25 0 5 -9 13 -20 16 -11 3 -20 10
-20 15 0 6 -95 58 -125 66 -52 16 -138 35 -170 39 -22 2 -71 7 -110 11 -57 6
-482 13 -488 8z"/>
</g>
</svg>
